<svg width="151" height="45" viewBox="0 0 151 45" fill="none" xmlns="http://www.w3.org/2000/svg">
<path d="M149.045 39.2079C149.045 39.7674 148.934 40.3215 148.72 40.8384C148.506 41.3552 148.192 41.8248 147.796 42.2202C147.4 42.6157 146.93 42.9292 146.412 43.1429C145.895 43.3567 145.341 43.4664 144.781 43.4658H5.25874C4.12791 43.467 3.0429 43.0191 2.24234 42.2206C1.44178 41.4221 0.99122 40.3385 0.989746 39.2079V5.25286C0.991219 4.12181 1.4416 3.03758 2.242 2.23822C3.0424 1.43887 4.1274 0.989735 5.25874 0.989441H144.78C145.34 0.989441 145.895 1.09973 146.412 1.314C146.929 1.52827 147.399 1.84233 147.795 2.23824C148.191 2.63414 148.505 3.10415 148.719 3.6214C148.934 4.13866 149.044 4.69303 149.044 5.25286L149.045 39.2079Z" fill="white"/>
<path d="M144.781 44.4563H5.25868C3.86562 44.456 2.52957 43.9032 1.5437 42.9193C0.557823 41.9353 0.00265061 40.6006 0 39.2079L0 5.25396C0.00206083 3.86058 0.556867 2.5249 1.54271 1.53995C2.52855 0.554988 3.86493 0.00117607 5.25868 0L144.78 0C146.174 0.0017629 147.51 0.555763 148.495 1.54059C149.481 2.52542 150.036 3.86076 150.039 5.25396V39.2079C150.041 42.1028 147.678 44.4563 144.781 44.4563Z" fill="#A6A6A6"/>
<path d="M149.045 39.2079C149.045 39.7674 148.934 40.3215 148.72 40.8384C148.506 41.3552 148.192 41.8248 147.796 42.2202C147.4 42.6157 146.93 42.9292 146.412 43.1429C145.895 43.3567 145.341 43.4664 144.781 43.4658H5.25874C4.12791 43.467 3.0429 43.0191 2.24234 42.2206C1.44178 41.4221 0.99122 40.3385 0.989746 39.2079V5.25286C0.991219 4.12181 1.4416 3.03758 2.242 2.23822C3.0424 1.43887 4.1274 0.989735 5.25874 0.989441H144.78C145.34 0.989441 145.895 1.09973 146.412 1.314C146.929 1.52827 147.399 1.84233 147.795 2.23824C148.191 2.63414 148.505 3.10415 148.719 3.6214C148.934 4.13866 149.044 4.69303 149.044 5.25286L149.045 39.2079Z" fill="black"/>
<path d="M33.5025 21.9941C33.4702 18.4111 36.4371 16.6679 36.5727 16.5868C34.8925 14.1377 32.2882 13.803 31.373 13.7764C29.1857 13.5462 27.064 15.0848 25.9497 15.0848C24.8133 15.0848 23.0974 13.7986 21.2482 13.8364C18.8685 13.8731 16.6422 15.2505 15.4212 17.3894C12.9014 21.7507 14.7807 28.1597 17.1949 31.6849C18.4025 33.4125 19.8137 35.3391 21.6607 35.2713C23.4677 35.198 24.1427 34.1207 26.3234 34.1207C28.484 34.1207 29.1178 35.2713 31.0016 35.228C32.9409 35.198 34.1619 33.4937 35.3273 31.7517C36.7229 29.7739 37.2833 27.824 37.3055 27.7239C37.2611 27.7083 33.5403 26.2876 33.5025 21.9941ZM29.9441 11.4573C30.9159 10.2422 31.5809 8.5891 31.3963 6.91153C29.9896 6.97379 28.2305 7.88428 27.2174 9.0727C26.3211 10.1199 25.5205 11.8364 25.7273 13.4506C27.3075 13.5685 28.9299 12.6535 29.9441 11.4573Z" fill="white"/>
<path d="M144.781 0H70.0488L99.3202 44.4563H144.781C146.175 44.4551 147.511 43.9016 148.496 42.9171C149.482 41.9327 150.037 40.5976 150.04 39.2046V5.25396C150.038 3.86067 149.483 2.52516 148.497 1.54027C147.511 0.555376 146.175 0.00146959 144.781 0Z" fill="url(#paint0_linear_152_176)"/>
<path d="M59.676 35.0234H57.1507L55.7673 30.6777H50.959L49.6413 35.0234H47.1826L51.9476 20.2287H54.8899L59.676 35.0234ZM55.3503 28.8545L54.0993 24.9913C53.967 24.5967 53.7179 23.6673 53.3531 22.2043H53.3087C53.1619 22.8335 52.9272 23.7629 52.6059 24.9913L51.376 28.8545H55.3503ZM71.9059 29.5582C71.9059 31.3726 71.4133 32.8067 70.4269 33.8595C69.544 34.7966 68.4464 35.2647 67.1376 35.2647C65.7242 35.2647 64.7079 34.7611 64.0907 33.7516V39.3491H61.7199V27.8618C61.7199 26.7223 61.6899 25.5538 61.632 24.3554H63.7171L63.8494 26.0463H63.8939C64.6845 24.7723 65.8844 24.1353 67.4945 24.1353C68.7533 24.1353 69.8042 24.6322 70.6449 25.6272C71.4844 26.6244 71.9059 27.934 71.9059 29.5582ZM69.4906 29.645C69.4906 28.6066 69.2571 27.7506 68.7878 27.0758C68.2752 26.3743 67.5868 26.023 66.7239 26.023C66.139 26.023 65.6075 26.2187 65.1326 26.6044C64.6567 26.9935 64.3453 27.5016 64.1997 28.1308C64.1346 28.3661 64.0977 28.6083 64.0896 28.8523V30.6322C64.0896 31.407 64.3276 32.0618 64.8035 32.5977C65.2794 33.1313 65.8977 33.3992 66.6583 33.3992C67.5513 33.3992 68.2463 33.0535 68.7433 32.3675C69.2415 31.6794 69.4906 30.7722 69.4906 29.645ZM84.1791 29.5582C84.1791 31.3726 83.6865 32.8067 82.7001 33.8595C81.8161 34.7966 80.7197 35.2647 79.4097 35.2647C77.9964 35.2647 76.98 34.7611 76.3628 33.7516V39.3491H73.992V27.8618C73.992 26.7223 73.962 25.5538 73.9042 24.3554H75.9892L76.1215 26.0463H76.166C76.9555 24.7723 78.1554 24.1353 79.7667 24.1353C81.0244 24.1353 82.0752 24.6322 82.9181 25.6272C83.7566 26.6244 84.1791 27.934 84.1791 29.5582ZM81.7627 29.645C81.7627 28.6066 81.5281 27.7506 81.0588 27.0758C80.5462 26.3743 79.8601 26.023 78.9972 26.023C78.4122 26.023 77.8807 26.2187 77.4037 26.6044C76.9277 26.9935 76.6175 27.5016 76.4718 28.1308C76.3995 28.4243 76.3606 28.6633 76.3606 28.8523V30.6322C76.3606 31.407 76.5997 32.0618 77.0734 32.5977C77.5493 33.1302 78.1676 33.3992 78.9304 33.3992C79.8245 33.3992 80.5195 33.0535 81.0155 32.3675C81.5136 31.6794 81.7627 30.7722 81.7627 29.645ZM97.9013 30.8734C97.9013 32.133 97.4609 33.1569 96.5858 33.9473C95.6228 34.81 94.2784 35.2424 92.5548 35.2424C90.9624 35.2424 89.6858 34.9356 88.7228 34.3208L89.271 32.3453C90.3107 32.9612 91.4528 33.268 92.696 33.268C93.59 33.268 94.285 33.0657 94.781 32.6644C95.2781 32.2619 95.5294 31.7239 95.5294 31.0524C95.5294 30.4509 95.3214 29.9473 94.9133 29.5371C94.503 29.128 93.8247 28.7467 92.8717 28.3965C90.2807 27.4304 88.9841 26.0174 88.9841 24.1586C88.9841 22.9447 89.4422 21.9508 90.3563 21.1737C91.2704 20.3977 92.4825 20.0097 93.9904 20.0097C95.337 20.0097 96.459 20.2443 97.3497 20.7123L96.7548 22.6445C95.9164 22.1909 94.97 21.9641 93.9114 21.9641C93.0752 21.9641 92.4191 22.1698 91.9498 22.5789C91.5551 22.9447 91.3549 23.3905 91.3549 23.9196C91.3549 24.5033 91.5829 24.988 92.0366 25.3682C92.4302 25.7184 93.1486 26.0997 94.1872 26.5088C95.4615 27.0224 96.3979 27.6205 96.9972 28.3076C97.601 28.9946 97.9013 29.8517 97.9013 30.8734ZM105.76 26.1342H103.147V31.3136C103.147 32.631 103.607 33.288 104.53 33.288C104.954 33.288 105.305 33.2525 105.583 33.178L105.649 34.9778C105.182 35.1524 104.567 35.2402 103.805 35.2402C102.869 35.2402 102.137 34.9545 101.609 34.3831C101.083 33.8117 100.818 32.8545 100.818 31.5071V26.1297H99.2613V24.351H100.818V22.3977L103.147 21.6951V24.351H105.76V26.1342ZM117.527 29.6016C117.527 31.2414 117.058 32.5877 116.122 33.6404C115.142 34.7244 113.839 35.2647 112.214 35.2647C110.646 35.2647 109.399 34.7455 108.47 33.7083C107.54 32.6688 107.075 31.3592 107.075 29.7795C107.075 28.1264 107.556 26.7723 108.513 25.7195C109.473 24.6656 110.765 24.1386 112.39 24.1386C113.955 24.1386 115.213 24.6589 116.165 25.6973C117.075 26.7045 117.527 28.0052 117.527 29.6016ZM115.07 29.6561C115.07 28.6789 114.858 27.8406 114.435 27.1392C113.938 26.292 113.226 25.8685 112.304 25.8685C111.354 25.8685 110.626 26.292 110.13 27.1392C109.705 27.8406 109.494 28.6933 109.494 29.7005C109.494 30.6788 109.705 31.5193 110.13 32.2186C110.643 33.0657 111.358 33.4893 112.284 33.4893C113.19 33.4893 113.901 33.0568 114.415 32.1974C114.851 31.4793 115.07 30.6355 115.07 29.6561ZM125.237 26.4399C124.99 26.3954 124.74 26.3734 124.489 26.3743C123.655 26.3743 123.01 26.6878 122.557 27.3192C122.163 27.8751 121.965 28.5777 121.965 29.4259V35.0234H119.594V27.715C119.596 26.5951 119.573 25.4754 119.525 24.3565H121.59L121.677 26.3976H121.743C121.994 25.6961 122.388 25.1303 122.928 24.7067C123.423 24.3366 124.024 24.1362 124.642 24.1353C124.861 24.1353 125.059 24.1509 125.234 24.1787L125.237 26.4399ZM135.84 29.1847C135.846 29.545 135.817 29.905 135.753 30.2597H128.641C128.667 31.3136 129.012 32.1207 129.672 32.6766C130.272 33.1724 131.047 33.4214 131.999 33.4214C133.052 33.4214 134.013 33.2547 134.877 32.9178L135.248 34.5621C134.238 35.0023 133.046 35.2213 131.671 35.2213C130.016 35.2213 128.717 34.7344 127.772 33.7627C126.829 32.79 126.356 31.4826 126.356 29.8451C126.356 28.2375 126.796 26.8979 127.675 25.8296C128.596 24.6889 129.84 24.1186 131.406 24.1186C132.944 24.1186 134.108 24.6889 134.899 25.8296C135.525 26.7334 135.84 27.854 135.84 29.1847ZM133.579 28.5699C133.596 27.8662 133.44 27.2603 133.119 26.7478C132.708 26.0875 132.077 25.7584 131.23 25.7584C130.455 25.7584 129.824 26.0797 129.343 26.7245C128.949 27.237 128.714 27.8529 128.642 28.5677L133.579 28.5699Z" fill="white"/>
<path d="M50.275 14.9981C49.6156 14.9981 49.0451 14.9659 48.5703 14.9114V7.75865C49.2344 7.65609 49.9055 7.60554 50.5775 7.60746C53.2963 7.60746 54.5485 8.94485 54.5485 11.1249C54.5485 13.6396 53.0695 14.9981 50.275 14.9981ZM50.6731 8.52463C50.3062 8.52463 49.9937 8.54686 49.7346 8.60022V14.0376C49.8747 14.0598 50.1438 14.0699 50.5219 14.0699C52.3033 14.0699 53.3175 13.056 53.3175 11.1572C53.3175 9.46402 52.4001 8.52463 50.6731 8.52463ZM58.4505 15.0526C56.9182 15.0526 55.9251 13.9087 55.9251 12.3556C55.9251 10.7369 56.9393 9.58298 58.5372 9.58298C60.0473 9.58298 61.0626 10.6725 61.0626 12.27C61.0626 13.9087 60.0162 15.0526 58.4505 15.0526ZM58.495 10.4345C57.6532 10.4345 57.1139 11.2216 57.1139 12.3222C57.1139 13.4017 57.6643 14.1888 58.4839 14.1888C59.3034 14.1888 59.8539 13.3472 59.8539 12.3C59.8539 11.2328 59.3145 10.4345 58.495 10.4345ZM69.8008 9.69081L68.1605 14.9337H67.0919L66.4125 12.6569C66.2435 12.0999 66.1029 11.5348 65.991 10.9637H65.9688C65.8832 11.5351 65.7208 12.1077 65.5484 12.6569L64.8256 14.9337H63.7459L62.2024 9.69081H63.4L63.9939 12.1833C64.134 12.7769 64.2518 13.3372 64.3497 13.8664H64.3719C64.4576 13.4251 64.5977 12.8736 64.8034 12.1944L65.5484 9.69192H66.4981L67.2109 12.141C67.3833 12.7347 67.5234 13.3172 67.6323 13.8675H67.6635C67.7391 13.3283 67.8581 12.7558 68.0193 12.141L68.6565 9.69192L69.8008 9.69081ZM75.839 14.9337H74.6736V11.9231C74.6736 10.996 74.3177 10.5313 73.6161 10.5313C72.9255 10.5313 72.4507 11.1249 72.4507 11.8153V14.9337H71.2853V11.1894C71.2853 10.7258 71.2742 10.2289 71.2419 9.6897H72.2672L72.3217 10.499H72.3539C72.6675 9.93872 73.3036 9.58298 74.0164 9.58298C75.1173 9.58298 75.8401 10.4245 75.8401 11.7942L75.839 14.9337ZM79.0527 14.9337H77.8862V7.28506H79.0527V14.9337ZM83.3016 15.0526C81.7704 15.0526 80.7763 13.9087 80.7763 12.3556C80.7763 10.7369 81.7904 9.58298 83.3873 9.58298C84.8985 9.58298 85.9126 10.6725 85.9126 12.27C85.9138 13.9087 84.8662 15.0526 83.3016 15.0526ZM83.345 10.4345C82.5032 10.4345 81.9639 11.2216 81.9639 12.3222C81.9639 13.4017 82.5155 14.1888 83.3328 14.1888C84.1534 14.1888 84.7028 13.3472 84.7028 12.3C84.7039 11.2328 84.1657 10.4345 83.345 10.4345ZM90.5075 14.9337L90.4229 14.33H90.3918C90.036 14.8158 89.5167 15.0526 88.8583 15.0526C87.9187 15.0526 87.2515 14.3945 87.2515 13.5095C87.2515 12.2155 88.3735 11.5463 90.3162 11.5463V11.4495C90.3162 10.7592 89.9503 10.4134 89.2275 10.4134C88.7104 10.4134 88.2568 10.5435 87.8575 10.8025L87.6207 10.0366C88.1055 9.73417 88.7105 9.58298 89.421 9.58298C90.791 9.58298 91.4827 10.3056 91.4827 11.7519V13.683C91.4827 14.2121 91.506 14.6224 91.5583 14.9348L90.5075 14.9337ZM90.3473 12.3222C89.053 12.3222 88.4035 12.6357 88.4035 13.3795C88.4035 13.9298 88.7383 14.1988 89.2031 14.1988C89.7958 14.1988 90.3473 13.7463 90.3473 13.1316V12.3222ZM97.1417 14.9337L97.0872 14.0921H97.055C96.7202 14.728 96.1576 15.0526 95.3714 15.0526C94.107 15.0526 93.1707 13.9409 93.1707 12.3767C93.1707 10.7369 94.1415 9.58186 95.467 9.58186C96.1687 9.58186 96.6658 9.81866 96.946 10.2945H96.9693V7.28506H98.1358V13.5207C98.1358 14.0276 98.1481 14.5023 98.1792 14.9337H97.1417ZM96.9693 11.8486C96.9693 11.1149 96.4834 10.489 95.7417 10.489C94.8776 10.489 94.3494 11.255 94.3494 12.3334C94.3494 13.3906 94.8977 14.1143 95.7183 14.1143C96.4511 14.1143 96.9693 13.4773 96.9693 12.7225V11.8486ZM105.532 15.0526C104.001 15.0526 103.008 13.9087 103.008 12.3556C103.008 10.7369 104.022 9.58298 105.619 9.58298C107.13 9.58298 108.144 10.6725 108.144 12.27C108.145 13.9087 107.099 15.0526 105.532 15.0526ZM105.575 10.4345C104.734 10.4345 104.195 11.2216 104.195 12.3222C104.195 13.4017 104.746 14.1888 105.564 14.1888C106.385 14.1888 106.934 13.3472 106.934 12.3C106.936 11.2328 106.397 10.4345 105.575 10.4345ZM114.411 14.9337H113.245V11.9231C113.245 10.996 112.889 10.5313 112.187 10.5313C111.497 10.5313 111.023 11.1249 111.023 11.8153V14.9337H109.856V11.1894C109.856 10.7258 109.845 10.2289 109.813 9.6897H110.838L110.893 10.499H110.925C111.237 9.93872 111.875 9.58186 112.586 9.58186C113.687 9.58186 114.411 10.4234 114.411 11.7931V14.9337ZM122.252 10.5646H120.97V13.1104C120.97 13.7586 121.194 14.0821 121.648 14.0821C121.854 14.0821 122.026 14.0598 122.165 14.0276L122.197 14.9125C121.972 14.9992 121.669 15.0426 121.293 15.0426C120.375 15.0426 119.826 14.5357 119.826 13.2083V10.5646H119.06V9.69081H119.826V8.73029L120.97 8.38455V9.6897H122.252V10.5646ZM128.421 14.9337H127.257V11.9454C127.257 11.0071 126.902 10.5324 126.2 10.5324C125.596 10.5324 125.033 10.9426 125.033 11.7731V14.9337H123.869V7.28506H125.033V10.4345H125.056C125.423 9.86313 125.955 9.58186 126.633 9.58186C127.743 9.58186 128.421 10.4446 128.421 11.8153V14.9337ZM134.742 12.5924H131.245C131.267 13.5851 131.924 14.1454 132.897 14.1454C133.414 14.1454 133.89 14.0587 134.311 13.8975L134.492 14.7069C133.996 14.9225 133.412 15.0304 132.733 15.0304C131.092 15.0304 130.122 13.9943 130.122 12.3878C130.122 10.7803 131.116 9.57186 132.601 9.57186C133.941 9.57186 134.782 10.5646 134.782 12.0643C134.79 12.2413 134.776 12.4186 134.742 12.5924ZM133.673 11.7619C133.673 10.9526 133.265 10.3812 132.52 10.3812C131.851 10.3812 131.321 10.9637 131.246 11.7619H133.673Z" fill="white"/>
<defs>
<linearGradient id="paint0_linear_152_176" x1="110.043" y1="44.5743" x2="110.043" y2="-115.757" gradientUnits="userSpaceOnUse">
<stop stop-color="#1A1A1A" stop-opacity="0.1"/>
<stop offset="0.123" stop-color="#212121" stop-opacity="0.151"/>
<stop offset="0.308" stop-color="#353535" stop-opacity="0.227"/>
<stop offset="0.532" stop-color="#575757" stop-opacity="0.318"/>
<stop offset="0.783" stop-color="#858585" stop-opacity="0.421"/>
<stop offset="1" stop-color="#B3B3B3" stop-opacity="0.51"/>
</linearGradient>
</defs>
</svg>
