<svg width="150" height="45" viewBox="0 0 150 45" fill="none" xmlns="http://www.w3.org/2000/svg">
<path d="M144.444 44.4444H5.55556C2.44444 44.4444 0 42 0 38.8889V5.55556C0 2.44444 2.44444 0 5.55556 0H144.444C147.556 0 150 2.44444 150 5.55556V38.8889C150 42 147.556 44.4444 144.444 44.4444Z" fill="black"/>
<path d="M144.444 0.888889C147 0.888889 149.111 3 149.111 5.55556V38.8889C149.111 41.4444 147 43.5556 144.444 43.5556H5.55556C3 43.5556 0.888889 41.4444 0.888889 38.8889V5.55556C0.888889 3 3 0.888889 5.55556 0.888889H144.444ZM144.444 0H5.55556C2.44444 0 0 2.55556 0 5.55556V38.8889C0 42 2.44444 44.4444 5.55556 44.4444H144.444C147.556 44.4444 150 42 150 38.8889V5.55556C150 2.55556 147.556 0 144.444 0Z" fill="#A6A6A6"/>
<path d="M75.6665 24.2222C72.9998 24.2222 70.8887 26.2222 70.8887 29C70.8887 31.6667 72.9998 33.7778 75.6665 33.7778C78.3332 33.7778 80.4443 31.7778 80.4443 29C80.4443 26.1111 78.3332 24.2222 75.6665 24.2222ZM75.6665 31.7778C74.2221 31.7778 72.9998 30.5556 72.9998 28.8889C72.9998 27.2222 74.2221 26 75.6665 26C77.1109 26 78.3332 27.1111 78.3332 28.8889C78.3332 30.5556 77.1109 31.7778 75.6665 31.7778ZM65.3332 24.2222C62.6665 24.2222 60.5554 26.2222 60.5554 29C60.5554 31.6667 62.6665 33.7778 65.3332 33.7778C67.9998 33.7778 70.1109 31.7778 70.1109 29C70.1109 26.1111 67.9998 24.2222 65.3332 24.2222ZM65.3332 31.7778C63.8887 31.7778 62.6665 30.5556 62.6665 28.8889C62.6665 27.2222 63.8887 26 65.3332 26C66.7776 26 67.9998 27.1111 67.9998 28.8889C67.9998 30.5556 66.7776 31.7778 65.3332 31.7778ZM52.9998 25.6667V27.6667H57.7776C57.6665 28.7778 57.2221 29.6667 56.6665 30.2222C55.9998 30.8889 54.8887 31.6667 52.9998 31.6667C49.9998 31.6667 47.7776 29.3333 47.7776 26.3333C47.7776 23.3333 50.111 21 52.9998 21C54.5554 21 55.7776 21.6667 56.6665 22.4444L58.1109 21C56.8887 19.8889 55.3332 19 53.1109 19C49.1109 19 45.6665 22.3333 45.6665 26.3333C45.6665 30.3333 49.1109 33.6667 53.1109 33.6667C55.3332 33.6667 56.8887 33 58.2221 31.5556C59.5554 30.2222 59.9998 28.3333 59.9998 26.8889C59.9998 26.4444 59.9998 26 59.8887 25.6667H52.9998ZM103.444 27.2222C103 26.1111 101.889 24.2222 99.4443 24.2222C96.9998 24.2222 94.9998 26.1111 94.9998 29C94.9998 31.6667 96.9998 33.7778 99.6665 33.7778C101.778 33.7778 103.111 32.4444 103.555 31.6667L102 30.5556C101.444 31.3333 100.778 31.8889 99.6665 31.8889C98.5554 31.8889 97.8887 31.4444 97.3332 30.4444L103.667 27.7778L103.444 27.2222ZM96.9998 28.7778C96.9998 27 98.4443 26 99.4443 26C100.222 26 101 26.4444 101.222 27L96.9998 28.7778ZM91.7776 33.3333H93.8887V19.4444H91.7776V33.3333ZM88.4443 25.2222C87.8887 24.6667 86.9998 24.1111 85.8887 24.1111C83.5554 24.1111 81.3332 26.2222 81.3332 28.8889C81.3332 31.5556 83.4443 33.5556 85.8887 33.5556C86.9998 33.5556 87.8887 33 88.3332 32.4444H88.4443V33.1111C88.4443 34.8889 87.4443 35.8889 85.8887 35.8889C84.6665 35.8889 83.7776 35 83.5554 34.2222L81.7776 35C82.3332 36.2222 83.6665 37.7778 85.9998 37.7778C88.4443 37.7778 90.4443 36.3333 90.4443 32.8889V24.4444H88.4443V25.2222ZM85.9998 31.7778C84.5554 31.7778 83.3332 30.5556 83.3332 28.8889C83.3332 27.2222 84.5554 26 85.9998 26C87.4443 26 88.5554 27.2222 88.5554 28.8889C88.5554 30.5556 87.4443 31.7778 85.9998 31.7778ZM113.111 19.4444H108.111V33.3333H110.222V28.1111H113.111C115.444 28.1111 117.667 26.4444 117.667 23.7778C117.667 21.1111 115.444 19.4444 113.111 19.4444ZM113.222 26.1111H110.222V21.3333H113.222C114.778 21.3333 115.667 22.6667 115.667 23.6667C115.555 24.8889 114.667 26.1111 113.222 26.1111ZM126 24.1111C124.444 24.1111 122.889 24.7778 122.333 26.2222L124.222 27C124.667 26.2222 125.333 26 126.111 26C127.222 26 128.222 26.6667 128.333 27.7778V27.8889C128 27.6667 127.111 27.3333 126.222 27.3333C124.222 27.3333 122.222 28.4444 122.222 30.4444C122.222 32.3333 123.889 33.5556 125.667 33.5556C127.111 33.5556 127.778 32.8889 128.333 32.2222H128.444V33.3333H130.444V28C130.222 25.5556 128.333 24.1111 126 24.1111ZM125.778 31.7778C125.111 31.7778 124.111 31.4444 124.111 30.5556C124.111 29.4444 125.333 29.1111 126.333 29.1111C127.222 29.1111 127.667 29.3333 128.222 29.5556C128 30.8889 126.889 31.7778 125.778 31.7778ZM137.444 24.4444L135.111 30.4444H135L132.555 24.4444H130.333L134 32.8889L131.889 37.5556H134L139.667 24.4444H137.444ZM118.778 33.3333H120.889V19.4444H118.778V33.3333Z" fill="white"/>
<path d="M11.5558 8.33331C11.2224 8.66665 11.1113 9.2222 11.1113 9.88887V34.4444C11.1113 35.1111 11.3336 35.6666 11.6669 36L11.778 36.1111L25.5558 22.3333V22.1111L11.5558 8.33331Z" fill="url(#paint0_linear_152_177)"/>
<path d="M29.9999 27L25.4443 22.4444V22.1111L29.9999 17.5555L30.111 17.6667L35.5554 20.7778C37.111 21.6667 37.111 23.1111 35.5554 24L29.9999 27Z" fill="url(#paint1_linear_152_177)"/>
<path d="M30.1112 26.8889L25.4446 22.2222L11.5557 36.1111C12.1112 36.6667 12.889 36.6667 13.889 36.2222L30.1112 26.8889Z" fill="url(#paint2_linear_152_177)"/>
<path d="M30.1112 17.5556L13.889 8.33333C12.889 7.77777 12.1112 7.88888 11.5557 8.44444L25.4446 22.2222L30.1112 17.5556Z" fill="url(#paint3_linear_152_177)"/>
<path opacity="0.2" d="M30.0001 26.7778L13.889 35.8889C13.0001 36.4444 12.2223 36.3333 11.6668 35.8889L11.5557 36L11.6668 36.1111C12.2223 36.5555 13.0001 36.6667 13.889 36.1111L30.0001 26.7778Z" fill="black"/>
<path opacity="0.12" d="M11.5558 35.8889C11.2224 35.5556 11.1113 35 11.1113 34.3333V34.4445C11.1113 35.1111 11.3336 35.6667 11.6669 36V35.8889H11.5558ZM35.5558 23.6667L30.0002 26.7778L30.1113 26.8889L35.5558 23.7778C36.3336 23.3333 36.6669 22.7778 36.6669 22.2222C36.6669 22.7778 36.2224 23.2222 35.5558 23.6667Z" fill="black"/>
<path opacity="0.25" d="M13.8891 8.44447L35.5558 20.7778C36.2224 21.2222 36.6669 21.6667 36.6669 22.2222C36.6669 21.6667 36.3336 21.1111 35.5558 20.6667L13.8891 8.33336C12.3336 7.44447 11.1113 8.11113 11.1113 9.88891V10C11.1113 8.33336 12.3336 7.55558 13.8891 8.44447Z" fill="white"/>
<path d="M51.3332 13.5556C50.6666 14.2222 49.8888 14.5556 48.8888 14.5556C47.8888 14.5556 47.111 14.2222 46.4443 13.5556C45.7777 12.8889 45.4443 12.1111 45.4443 11.1111C45.4443 10.1111 45.7777 9.33335 46.4443 8.66669C47.111 8.00002 47.8888 7.66669 48.8888 7.66669C49.8888 7.66669 50.6666 8.00002 51.3332 8.66669C51.9999 9.33335 52.3332 10.1111 52.3332 11.1111C52.3332 12.1111 51.9999 12.8889 51.3332 13.5556ZM47.111 13C47.5554 13.4445 48.2221 13.7778 48.8888 13.7778C49.5554 13.7778 50.2221 13.5556 50.6666 13C51.111 12.5556 51.4443 11.8889 51.4443 11.1111C51.4443 10.3334 51.2221 9.66669 50.6666 9.22224C50.2221 8.7778 49.5554 8.44446 48.8888 8.44446C48.2221 8.44446 47.5554 8.66669 47.111 9.22224C46.6666 9.66669 46.3332 10.3334 46.3332 11.1111C46.3332 11.8889 46.5554 12.5556 47.111 13ZM53.5554 14.4445V7.7778H54.5554L57.7777 13V7.7778H58.6666V14.4445H57.7777L54.4443 9.00002V14.4445H53.5554ZM62.4443 14.4445H61.5554V8.55558H59.6666V7.7778H64.2221V8.55558H62.3332V14.4445H62.4443ZM65.4443 14.4445V7.7778H67.4443C68.4443 7.7778 69.3332 8.11113 69.8888 8.66669C70.5554 9.33335 70.7777 10.1111 70.7777 11.1111C70.7777 12.1111 70.4443 12.8889 69.8888 13.5556C69.2221 14.2222 68.4443 14.4445 67.4443 14.4445H65.4443ZM66.2221 13.6667H67.4443C68.2221 13.6667 68.7777 13.4445 69.2221 13C69.6666 12.5556 69.8888 11.8889 69.8888 11.1111C69.8888 10.3334 69.6666 9.66669 69.2221 9.22224C68.7777 8.7778 68.111 8.55558 67.4443 8.55558H66.2221V13.6667ZM75.8888 8.55558H72.8888V10.6667H75.6666V11.4445H72.8888V13.5556H75.8888V14.4445H71.9999V7.7778H75.8888V8.55558ZM82.2221 7.7778L79.7777 10.6667L82.4443 14.4445H81.4443L79.2221 11.3334L78.2221 12.5556V14.4445H77.3332V7.7778H78.2221V11.2222L81.111 7.7778H82.2221ZM85.4443 14.4445V7.7778H86.3332V10.6667H89.6666V7.7778H90.5554V14.4445H89.6666V11.4445H86.3332V14.4445H85.4443ZM95.9999 8.55558H92.9999V10.6667H95.7777V11.4445H92.9999V13.5556H95.9999V14.4445H92.111V7.7778H95.9999V8.55558ZM99.5554 14.4445H98.6666V8.55558H96.7777V7.7778H101.333V8.55558H99.4443V14.4445H99.5554ZM110.111 13.5556C109.444 14.2222 108.667 14.5556 107.667 14.5556C106.667 14.5556 105.889 14.2222 105.222 13.5556C104.555 12.8889 104.222 12.1111 104.222 11.1111C104.222 10.1111 104.555 9.33335 105.222 8.66669C105.889 8.00002 106.667 7.66669 107.667 7.66669C108.667 7.66669 109.444 8.00002 110.111 8.66669C110.778 9.33335 111.111 10.1111 111.111 11.1111C111.111 12.1111 110.778 12.8889 110.111 13.5556ZM105.889 13C106.333 13.4445 107 13.7778 107.667 13.7778C108.333 13.7778 109 13.5556 109.444 13C109.889 12.5556 110.222 11.8889 110.222 11.1111C110.222 10.3334 110 9.66669 109.444 9.22224C109 8.7778 108.333 8.44446 107.667 8.44446C107 8.44446 106.333 8.66669 105.889 9.22224C105.444 9.66669 105.111 10.3334 105.111 11.1111C105.111 11.8889 105.333 12.5556 105.889 13ZM113.111 14.4445H112.222V7.7778H114.444C115 7.7778 115.444 8.00002 115.889 8.33335C116.333 8.66669 116.555 9.22224 116.555 9.7778C116.555 10.3334 116.333 10.7778 115.889 11.2222C115.444 11.5556 115 11.7778 114.444 11.7778H113V14.4445H113.111ZM113.111 10.8889H114.555C114.889 10.8889 115.222 10.7778 115.444 10.5556C115.667 10.3334 115.778 10 115.778 9.7778C115.778 9.55558 115.667 9.22224 115.444 9.00002C115.222 8.7778 114.889 8.66669 114.555 8.66669H113.111V10.8889Z" fill="white" stroke="white" stroke-width="0.222222" stroke-miterlimit="10"/>
<defs>
<linearGradient id="paint0_linear_152_177" x1="24.2224" y1="9.67776" x2="5.57466" y2="28.3244" gradientUnits="userSpaceOnUse">
<stop stop-color="#00A0FF"/>
<stop offset="0.007" stop-color="#00A1FF"/>
<stop offset="0.26" stop-color="#00BEFF"/>
<stop offset="0.512" stop-color="#00D2FF"/>
<stop offset="0.76" stop-color="#00DFFF"/>
<stop offset="1" stop-color="#00E3FF"/>
</linearGradient>
<linearGradient id="paint1_linear_152_177" x1="37.5932" y1="22.2233" x2="10.7077" y2="22.2233" gradientUnits="userSpaceOnUse">
<stop stop-color="#FFE000"/>
<stop offset="0.409" stop-color="#FFBD00"/>
<stop offset="0.775" stop-color="#FFA500"/>
<stop offset="1" stop-color="#FF9C00"/>
</linearGradient>
<linearGradient id="paint2_linear_152_177" x1="27.5857" y1="24.7733" x2="2.299" y2="50.06" gradientUnits="userSpaceOnUse">
<stop stop-color="#FF3A44"/>
<stop offset="1" stop-color="#C31162"/>
</linearGradient>
<linearGradient id="paint3_linear_152_177" x1="8.10789" y1="0.195551" x2="19.4001" y2="11.4878" gradientUnits="userSpaceOnUse">
<stop stop-color="#32A071"/>
<stop offset="0.069" stop-color="#2DA771"/>
<stop offset="0.476" stop-color="#15CF74"/>
<stop offset="0.801" stop-color="#06E775"/>
<stop offset="1" stop-color="#00F076"/>
</linearGradient>
</defs>
</svg>
